<svg width="200" height="71" viewBox="0 0 200 71" fill="none" xmlns="http://www.w3.org/2000/svg">
<path d="M78.4825 49.7485C79.5378 49.1818 80.2414 48.0873 80.2414 46.7584C80.2414 44.7845 78.6388 43.1625 76.6454 43.1625H71.1929V56.8427H77.0949C79.1665 56.8427 80.8276 55.1815 80.8276 53.1099C80.8276 51.5465 79.8505 50.2762 78.4825 49.7485ZM76.6454 44.1396C78.0525 44.1396 79.2056 45.3122 79.2056 46.7584C79.2056 48.2046 78.0525 49.3772 76.6454 49.3772H72.2287V44.1396H76.6454ZM77.0949 55.8655H72.2287V50.3543H77.0949C78.5802 50.3543 79.7919 51.5856 79.7919 53.1099C79.7919 54.6343 78.5802 55.8655 77.0949 55.8655Z" fill="white"/>
<path d="M83.1737 56.8427H84.1509V42.5762H83.1737V56.8427Z" fill="white"/>
<path d="M91.6379 57.0576C94.4717 57.0576 96.7582 54.8493 96.7582 51.9569C96.7582 49.0645 94.4717 46.8561 91.6379 46.8561C88.7846 46.8561 86.4981 49.0645 86.4981 51.9569C86.4981 54.8493 88.7846 57.0576 91.6379 57.0576ZM91.6379 56.1196C89.3123 56.1196 87.4948 54.2825 87.4948 51.9569C87.4948 49.6313 89.3123 47.7942 91.6379 47.7942C93.9635 47.7942 95.7615 49.6313 95.7615 51.9569C95.7615 54.2825 93.9635 56.1196 91.6379 56.1196Z" fill="white"/>
<path d="M103.585 57.0576C106.419 57.0576 108.705 54.8493 108.705 51.9569C108.705 49.0645 106.419 46.8561 103.585 46.8561C100.732 46.8561 98.4453 49.0645 98.4453 51.9569C98.4453 54.8493 100.732 57.0576 103.585 57.0576ZM103.585 56.1196C101.26 56.1196 99.442 54.2825 99.442 51.9569C99.442 49.6313 101.26 47.7942 103.585 47.7942C105.911 47.7942 107.709 49.6313 107.709 51.9569C107.709 54.2825 105.911 56.1196 103.585 56.1196Z" fill="white"/>
<path d="M119.676 43.1625V49.3381C118.874 47.8333 117.37 46.8561 115.474 46.8561C112.679 46.8561 110.412 49.0645 110.412 51.9569C110.412 54.8493 112.679 57.0576 115.474 57.0576C117.37 57.0576 118.874 56.0805 119.676 54.5757V56.8427H120.653V43.1625H119.676ZM115.532 56.1196C113.207 56.1196 111.389 54.2825 111.389 51.9569C111.389 49.6313 113.207 47.7942 115.532 47.7942C117.858 47.7942 119.676 49.6313 119.676 51.9569C119.676 54.2825 117.858 56.1196 115.532 56.1196Z" fill="white"/>
<path d="M133.71 43.1625H129.059V56.8427H130.095V51.6247H133.71C136.173 51.6247 137.971 49.8071 137.971 47.4033C137.971 44.98 136.173 43.1625 133.71 43.1625ZM133.71 50.6475H130.095V44.1396H133.71C135.586 44.1396 136.935 45.5076 136.935 47.4033C136.935 49.2795 135.586 50.6475 133.71 50.6475Z" fill="white"/>
<path d="M141.12 48.9863V47.0711H140.143V56.8427H141.12V51.4097C141.12 48.9082 142.703 47.8724 144.384 47.8724V46.9343C143.055 46.9343 141.784 47.4424 141.12 48.9863Z" fill="white"/>
<path d="M150.17 46.8561C147.18 46.8561 145.108 49.084 145.108 51.9569C145.108 54.9079 147.239 57.0576 150.248 57.0576C152.183 57.0576 153.707 56.1782 154.509 54.8493L153.649 54.3412C153.082 55.3769 151.87 56.1196 150.268 56.1196C148.04 56.1196 146.359 54.6734 146.125 52.465H154.978C154.978 52.3087 154.997 52.1523 154.997 51.996C154.997 49.3186 153.141 46.8561 150.17 46.8561ZM150.17 47.7942C152.085 47.7942 153.766 49.1231 153.981 51.5074H146.125C146.32 49.3381 147.942 47.7942 150.17 47.7942Z" fill="white"/>
<path d="M157.564 49.6313C157.564 48.4587 158.639 47.7942 159.909 47.7942C160.984 47.7942 162 48.2632 162.411 49.2795L163.232 48.8104C162.704 47.6183 161.492 46.8561 159.909 46.8561C157.916 46.8561 156.587 48.0873 156.587 49.6313C156.587 53.149 162.508 51.6247 162.508 54.2825C162.508 55.5137 161.355 56.1196 159.987 56.1196C158.522 56.1196 157.466 55.4551 157.115 54.3998L156.274 54.8884C156.743 56.1391 158.033 57.0576 159.987 57.0576C162.078 57.0576 163.486 55.8851 163.486 54.2825C163.486 50.7061 157.564 52.25 157.564 49.6313Z" fill="white"/>
<path d="M165.923 49.6313C165.923 48.4587 166.998 47.7942 168.268 47.7942C169.343 47.7942 170.36 48.2632 170.77 49.2795L171.591 48.8104C171.063 47.6183 169.851 46.8561 168.268 46.8561C166.275 46.8561 164.946 48.0873 164.946 49.6313C164.946 53.149 170.868 51.6247 170.868 54.2825C170.868 55.5137 169.715 56.1196 168.347 56.1196C166.881 56.1196 165.826 55.4551 165.474 54.3998L164.633 54.8884C165.102 56.1391 166.392 57.0576 168.347 57.0576C170.438 57.0576 171.845 55.8851 171.845 54.2825C171.845 50.7061 165.923 52.25 165.923 49.6313Z" fill="white"/>
<path d="M181.15 47.0711V52.2305C181.15 54.8688 179.645 56.1196 177.73 56.1196C175.893 56.1196 174.857 54.947 174.857 53.149V47.0711H173.86V53.149C173.86 55.5137 175.326 57.0576 177.652 57.0576C179.156 57.0576 180.407 56.4323 181.15 54.9861V56.8427H182.127V47.0711H181.15Z" fill="white"/>
<path d="M186.123 48.9863V47.0711H185.146V56.8427H186.123V51.4097C186.123 48.9082 187.706 47.8724 189.386 47.8724V46.9343C188.057 46.9343 186.787 47.4424 186.123 48.9863Z" fill="white"/>
<path d="M195.173 46.8561C192.183 46.8561 190.111 49.084 190.111 51.9569C190.111 54.9079 192.241 57.0576 195.251 57.0576C197.186 57.0576 198.71 56.1782 199.511 54.8493L198.652 54.3412C198.085 55.3769 196.873 56.1196 195.271 56.1196C193.043 56.1196 191.362 54.6734 191.127 52.465H199.98C199.98 52.3087 200 52.1523 200 51.996C200 49.3186 198.143 46.8561 195.173 46.8561ZM195.173 47.7942C197.088 47.7942 198.769 49.1231 198.984 51.5074H191.127C191.323 49.3381 192.945 47.7942 195.173 47.7942Z" fill="white"/>
<path d="M81.3718 14.9753V21.9962H74.0135V14.9753H71.1929V32.0996H74.0135V24.6872H81.3718V32.0996H84.1925V14.9753H81.3718Z" fill="white"/>
<path d="M95.7186 19.8679V26.4241C95.7186 28.9194 94.345 29.9468 92.6036 29.9468C90.9357 29.9468 89.8565 28.9683 89.8565 27.1091V19.8679H87.2075V27.3782C87.2075 30.5584 89.1697 32.4176 91.9168 32.4176C93.5847 32.4176 94.9092 31.806 95.7186 30.5339V32.0996H98.3675V19.8679H95.7186Z" fill="white"/>
<path d="M114.857 19.5499C113.214 19.5499 111.914 20.2104 111.104 21.4825C110.393 20.2593 109.216 19.5499 107.622 19.5499C106.101 19.5499 104.899 20.137 104.114 21.3357V19.8679H101.465V32.0996H104.114V25.2499C104.114 23.0237 105.34 22.0207 106.837 22.0207C108.284 22.0207 109.142 22.9748 109.142 24.6872V32.0996H111.791V25.2499C111.791 23.0237 112.895 22.0207 114.465 22.0207C115.912 22.0207 116.844 22.9748 116.844 24.6872V32.0996H119.493V24.516C119.493 21.458 117.629 19.5499 114.857 19.5499Z" fill="white"/>
<path d="M132.041 19.8679V21.6048C131.109 20.3327 129.662 19.5499 127.749 19.5499C124.413 19.5499 121.641 22.3387 121.641 25.9838C121.641 29.6043 124.413 32.4176 127.749 32.4176C129.662 32.4176 131.109 31.6348 132.041 30.3382V32.0996H134.69V19.8679H132.041ZM128.166 29.8979C125.958 29.8979 124.29 28.2588 124.29 25.9838C124.29 23.7087 125.958 22.0696 128.166 22.0696C130.373 22.0696 132.041 23.7087 132.041 25.9838C132.041 28.2588 130.373 29.8979 128.166 29.8979Z" fill="white"/>
<path d="M144.228 19.5499C142.56 19.5499 141.236 20.1615 140.426 21.4336V19.8679H137.777V32.0996H140.426V25.5434C140.426 23.0482 141.8 22.0207 143.541 22.0207C145.209 22.0207 146.289 22.9992 146.289 24.8584V32.0996H148.938V24.5893C148.938 21.4091 146.975 19.5499 144.228 19.5499Z" fill="white"/>
<path d="M153.114 18.0332C154.046 18.0332 154.807 17.2503 154.807 16.3452C154.807 15.4156 154.046 14.6572 153.114 14.6572C152.182 14.6572 151.422 15.4156 151.422 16.3452C151.422 17.2503 152.182 18.0332 153.114 18.0332ZM151.79 32.0996H154.439V19.8679H151.79V32.0996Z" fill="white"/>
<path d="M167.227 19.8679V21.6293C166.295 20.3327 164.848 19.5499 162.935 19.5499C159.599 19.5499 156.828 22.3632 156.828 25.9838C156.828 29.6288 159.599 32.4176 162.935 32.4176C164.848 32.4176 166.295 31.6348 167.227 30.3627V36.9923H169.876V19.8679H167.227ZM163.352 29.8979C161.145 29.8979 159.477 28.2588 159.477 25.9838C159.477 23.7087 161.145 22.0696 163.352 22.0696C165.56 22.0696 167.227 23.7087 167.227 25.9838C167.227 28.2588 165.56 29.8979 163.352 29.8979Z" fill="white"/>
<path d="M181.23 19.8679V26.4241C181.23 28.9194 179.856 29.9468 178.115 29.9468C176.447 29.9468 175.368 28.9683 175.368 27.1091V19.8679H172.719V27.3782C172.719 30.5584 174.681 32.4176 177.428 32.4176C179.096 32.4176 180.42 31.806 181.23 30.5339V32.0996H183.879V19.8679H181.23Z" fill="white"/>
<path d="M189.061 27.1091H198.823C198.872 26.7666 198.921 26.3752 198.921 26.0082C198.921 22.4855 196.42 19.5499 192.765 19.5499C188.914 19.5499 186.29 22.3632 186.29 25.9838C186.29 29.6533 188.914 32.4176 192.961 32.4176C195.365 32.4176 197.204 31.4146 198.333 29.7511L196.15 28.479C195.561 29.3352 194.457 29.9957 192.986 29.9957C191.023 29.9957 189.478 29.0172 189.061 27.1091ZM189.037 24.9563C189.405 23.1215 190.754 21.9473 192.74 21.9473C194.335 21.9473 195.88 22.8524 196.248 24.9563H189.037Z" fill="white"/>
<path d="M55.8376 43.3162C55.8376 58.3266 43.3379 70.4949 27.9188 70.4949C12.4997 70.4949 0 58.3266 0 43.3162C0 35.8412 4.12655 26.9089 13.8751 16.1374C26.1739 2.54801 27.9188 0 27.9188 0C27.9188 0 29.6637 2.54801 42.7507 16.9867C51.7304 26.894 55.8376 34.8228 55.8376 43.3162Z" fill="white"/>
<path d="M18.1472 26.1499C18.0348 25.9328 18.1126 25.6643 18.3238 25.5412V25.5412C18.5349 25.4181 18.8041 25.4842 18.934 25.6911L34.6553 50.7319C35.1625 51.5398 34.8982 52.6134 34.0739 53.0941V53.0941C33.2496 53.5748 32.1969 53.2691 31.7578 52.4215L18.1472 26.1499Z" fill="#FF3B30"/>
<ellipse cx="4.7567" cy="4.78043" rx="4.7567" ry="4.78043" transform="matrix(0.863858 -0.503736 0.496273 0.868166 21.4135 40.5596)" fill="#FF3B30"/>
</svg>
